#!OML:ASF E:\emotionWalksFemale\Project 1\Capture day 1\Session 1\Female1.ASF
:FULLY-SPECIFIED
:DEGREES
2277
root 9.68207 14.8295 26.2816 1.26436 -0.797192 356.854
lowerback 7.67182 5.00311 3.44362
upperback 0.351595 7.02071 1.58195
thorax -3.7034 3.43617 -1.0183
lowerneck 5.88549 -6.30403 -8.36591
upperneck 0.458296 -8.88307 5.72644
head -0.200123 -4.52086 3.43924
rclavicle -5.17337e-014 2.70347e-014
rhumerus -20.8401 8.0342 -74.5469
rradius 26.2902
rwrist 31.9358
rhand 6.05774 -60.3882
rfingers 7.12502
rthumb -148.622 1172.28
lclavicle -5.17337e-014 2.70347e-014
lhumerus -49.1745 -5.91575 79.7762
lradius 52.2389
lwrist -1.3081
lhand -20.7531 -57.9137
lfingers 7.12502
lthumb 5.6127 -28.008
rfemur 1.38317 2.56112 31.5079
rtibia 29.3151
rfoot -28.4609 -31.385
rtoes 16.7166
lfemur -34.8472 -26.4177 -3.23255
ltibia 24.7556
lfoot -15.7416 27.5217
ltoes -17.2627
2278
root 9.70659 14.8757 26.3987 1.6537 -0.884215 357.045
lowerback 7.19031 5.15356 3.24814
upperback 0.246033 7.17306 1.23008
thorax -3.51689 3.51684 -1.24285
lowerneck 5.40827 -6.46935 -8.92225
upperneck 0.984946 -9.11288 6.38361
head 0.131823 -4.64468 3.72962
rclavicle -7.29043e-014 9.54166e-015
rhumerus -20.5781 8.00888 -74.7967
rradius 26.0813
rwrist 32.3187
rhand 5.97735 -60.2772
rfingers 7.12502
rthumb -148.698 1172.38
lclavicle -7.29043e-014 9.54166e-015
lhumerus -48.864 -5.32696 78.9313
lradius 51.3499
lwrist -1.83369
lhand -20.8454 -58.5392
lfingers 7.12502
lthumb 5.52364 -28.6311
rfemur 2.13675 3.08284 31.3063
rtibia 27.9709
rfoot -27.6358 -31.9115
rtoes 17.8846
lfemur -34.8007 -27.5301 -3.07373
ltibia 24.4267
lfoot -16.3485 28.7653
ltoes -17.6983
2279
root 9.73088 14.9048 26.5167 1.97345 -1.0337 357.194
lowerback 6.65776 5.34397 3.11697
upperback 0.233332 7.3816 0.874421
thorax -3.19379 3.62834 -1.49621
lowerneck 4.78275 -6.68984 -9.52058
upperneck 1.4473 -9.40859 7.27102
head 0.497373 -4.79852 4.10592
rclavicle -8.64465e-014 -1.53064e-014
rhumerus -20.2609 7.98937 -75.0274
rradius 25.9489
rwrist 32.3267
rhand 5.70632 -60.5283
rfingers 7.12502
rthumb -148.957 1172.08
lclavicle -8.64465e-014 -1.53064e-014
lhumerus -48.4957 -4.89676 78.1027
lradius 50.6544
lwrist -2.15711
lhand -21.1085 -58.8343
lfingers 7.12502
lthumb 5.26959 -28.9199
rfemur 2.95124 3.70651 31.1625
rtibia 26.6763
rfoot -26.8499 -32.1858
rtoes 20.7284
lfemur -34.7345 -28.4303 -2.9425
ltibia 24.2542
lfoot -16.9505 29.8826
ltoes -19.4488
2280
root 9.75514 14.931 26.6334 2.1782 -1.14028 357.301
lowerback 6.66354 5.56877 3.17059
upperback -0.11848 7.68028 0.437798
thorax -3.48182 3.76313 -2.01643
lowerneck 4.74135 -6.90389 -10.0501
upperneck 1.99231 -9.74789 8.06236
head 0.791637 -4.98096 4.46534
rclavicle 1.72197e-014 1.39149e-014
rhumerus -20.7579 7.96341 -75.3934
rradius 26.0153
rwrist 32.3679
rhand 5.86992 -60.7774
rfingers 7.12502
rthumb -148.801 1171.86
lclavicle 1.72197e-014 1.39149e-014
lhumerus -48.7801 -4.68534 77.1806
lradius 50.3228
lwrist -2.45266
lhand -21.4395 -58.6854
lfingers 7.12502
lthumb 4.94996 -28.7632
rfemur 3.84107 4.17875 31.0783
rtibia 25.4096
rfoot -25.9865 -32.4392
rtoes 22.2232
lfemur -34.5511 -29.1826 -2.93264
ltibia 24.29
lfoot -18.3365 30.4313
ltoes -17.6126
2281
root 9.77667 14.9626 26.7489 2.38113 -1.2312 357.434
lowerback 6.77899 5.7797 3.09299
upperback -0.541704 7.9547 0.00985658
thorax -3.92136 3.8821 -2.47508
lowerneck 5.35943 -7.04606 -10.5542
upperneck 1.96377 -10.0436 9.38166
head 0.724528 -5.14498 4.51247
rclavicle -5.6343e-015 5.29264e-015
rhumerus -21.3329 7.90241 -75.7794
rradius 26.0492
rwrist 32.6115
rhand 5.69007 -60.9936
rfingers 7.12502
rthumb -148.972 1171.61
lclavicle -5.6343e-015 5.29264e-015
lhumerus -49.148 -4.40989 76.1944
lradius 49.9565
lwrist -2.73474
lhand -21.4027 -58.7573
lfingers 7.12502
lthumb 4.98549 -28.836
rfemur 4.66838 4.60575 30.9987
rtibia 24.2693
rfoot -25.1118 -32.9084
rtoes 22.6615
lfemur -34.4016 -29.8959 -2.96486
ltibia 24.2808
lfoot -17.539 30.7694
ltoes -17.0585
2282
root 9.79716 15.0083 26.8666 2.62812 -1.36394 357.623
lowerback 6.2851 5.9674 2.79781
upperback -0.63162 8.15523 -0.314486
thorax -3.71998 3.99071 -2.60992
lowerneck 5.49702 -7.1811 -10.7457
upperneck 1.97975 -10.258 9.88353
head 0.763956 -5.25969 4.69334
rclavicle -3.79368e-014 1.96797e-014
rhumerus -21.3224 7.90342 -75.9911
rradius 25.9473
rwrist 32.7159
rhand 5.01282 -61.2494
rfingers 7.12502
rthumb -149.618 1171.23
lclavicle -3.79368e-014 1.96797e-014
lhumerus -48.9911 -3.95562 75.3333
lradius 49.2863
lwrist -2.71374
lhand -21.0746 -59.1404
lfingers 7.12502
lthumb 5.30236 -29.2267
rfemur 5.41453 4.98222 30.8322
rtibia 23.1442
rfoot -23.8623 -33.5043
rtoes 22.0378
lfemur -33.3945 -29.3115 -3.98851
ltibia 24.3549
lfoot -19.0065 29.5371
ltoes -14.3952
2283
root 9.82013 15.0494 26.9827 2.92755 -1.44027 357.657
lowerback 5.27295 6.07303 2.83999
upperback -0.399771 8.25363 -0.648277
thorax -2.85315 4.06286 -2.83611
lowerneck 5.15707 -7.30516 -10.6877
upperneck 2.00125 -10.3979 10.1556
head 0.850649 -5.32247 4.74672
rclavicle 5.61815e-014 1.68967e-014
rhumerus -20.7493 7.85326 -76.2091
rradius 25.7729
rwrist 32.8799
rhand 4.7327 -61.3781
rfingers 7.12502
rthumb -149.885 1171.06
lclavicle 5.61815e-014 1.68967e-014
lhumerus -48.3399 -3.29199 74.412
lradius 48.5732
lwrist -2.50115
lhand -20.8469 -59.3018
lfingers 7.12502
lthumb 5.52216 -29.3937
rfemur 5.94005 5.11443 30.7969
rtibia 22.1287
rfoot -21.5472 -34.4375
rtoes 17.8086
lfemur -33.3166 -30.1508 -3.85262
ltibia 24.4295
lfoot -20.2664 29.8047
ltoes -12.227
2284
root 9.84277 15.0701 27.0833 3.2067 -1.45103 357.513
lowerback 5.16574 6.19155 3.02149
upperback -0.616249 8.41512 -0.944151
thorax -2.93684 4.1348 -3.2453
lowerneck 4.98313 -7.4664 -10.8072
upperneck 2.28241 -10.6297 10.4914
head 1.00992 -5.43605 4.84525
rclavicle 5.81445e-014 -2.98177e-015
rhumerus -20.8247 7.71363 -76.4522
rradius 25.6946
rwrist 33.2748
rhand 4.62344 -61.3243
rfingers 7.12502
rthumb -149.989 1171.09
lclavicle 5.81445e-014 -2.98177e-015
lhumerus -48.3033 -2.81092 73.5103
lradius 48.1353
lwrist -2.50626
lhand -20.7931 -59.4471
lfingers 7.12502
lthumb 5.57408 -29.5404
rfemur 6.47096 5.47889 30.9556
rtibia 21.2625
rfoot -21.5698 -34.3118
rtoes 18.9258
lfemur -33.706 -31.3146 -3.15402
ltibia 24.5147
lfoot -21.3957 30.5223
ltoes -10.081
2285
root 9.86492 15.0897 27.1748 3.40196 -1.4285 357.345
lowerback 5.53476 6.27024 3.04823
upperback -1.00447 8.53374 -1.11158
thorax -3.50793 4.17148 -3.51437
lowerneck 5.03208 -7.59685 -11.1956
upperneck 2.59813 -10.859 10.8802
head 1.16158 -5.55598 5.01028
rclavicle -5.32991e-014 -1.47101e-014
rhumerus -21.0854 7.49017 -76.574
rradius 25.5951
rwrist 33.8778
rhand 4.395 -61.2603
rfingers 7.12502
rthumb -150.207 1171.12
lclavicle -5.32991e-014 -1.47101e-014
lhumerus -48.6677 -2.38118 72.7937
lradius 47.9418
lwrist -2.11796
lhand -20.6683 -59.6787
lfingers 7.12502
lthumb 5.69464 -29.7753
rfemur 6.91692 5.72285 31.1693
rtibia 20.5905
rfoot -21.7246 -34.2107
rtoes 20.502
lfemur -33.7436 -31.8634 -2.79981
ltibia 24.4714
lfoot -22.1055 30.7724
ltoes -8.69011
2286
root 9.88977 15.1098 27.272 3.50504 -1.36995 357.264
lowerback 5.55965 6.33183 3.00503
upperback -1.10941 8.61124 -1.22632
thorax -3.61363 4.20581 -3.62443
lowerneck 4.83734 -7.7358 -11.675
upperneck 2.91587 -11.0828 11.2574
head 1.3589 -5.66708 5.17398
rclavicle -9.12422e-014 7.95139e-015
rhumerus -20.9916 7.20765 -76.5364
rradius 25.5529
rwrist 34.2888
rhand 4.71163 -61.6549
rfingers 7.12502
rthumb -149.905 1170.78
lclavicle -9.12422e-014 7.95139e-015
lhumerus -48.7142 -1.83944 72.2759
lradius 47.6869
lwrist -1.47442
lhand -20.5281 -59.8511
lfingers 7.12502
lthumb 5.83 -29.9513
rfemur 7.54497 5.9075 31.3103
rtibia 19.8974
rfoot -21.8281 -34.2552
rtoes 22.1925
lfemur -33.5801 -32.4503 -2.73574
ltibia 24.5496
lfoot -22.5167 31.189
ltoes -9.35949
